<?xml version="1.0" encoding="UTF-8"?>
<svg width="400px" height="380px" viewBox="0 0 400 380" version="1.1" xmlns="http://www.w3.org/2000/svg" xmlns:xlink="http://www.w3.org/1999/xlink">
    <!-- Generator: Sketch 59 (86127) - https://sketch.com -->
    <title>icon</title>
    <desc>Created with Sketch.</desc>
    <g id="icon" stroke="none" stroke-width="1" fill="none" fill-rule="evenodd" opacity="0.76">
        <g id="Icon" fill-rule="nonzero">
            <rect id="Rectangle" fill="#6AD4DD" x="132" y="0.439252336" width="134" height="127"></rect>
            <path d="M122.411275,0.439252336 L134,0.439252336 L134,127.439252 L0,127.439252 L0,121.762006 C0.0789356281,54.7454285 54.8565967,0.454868336 122.411275,0.439252336 L122.411275,0.439252336 Z" id="Path" fill="#8ADDE4"></path>
            <path d="M0,125.439252 L134,125.439252 L134,252.439252 L127.277114,252.439252 C56.9839048,252.439252 0,195.897139 0,126.148908 L0,125.439252 L0,125.439252 Z" id="Path" fill="#ACE7EB"></path>
            <path d="M1,252.581025 L135,252.581025 L135,379.439252 L123.413749,379.439252 C55.8065024,379.439252 1,325.118367 1,258.110161 L1,252.439252 L1,252.581025 Z" id="Path" fill="#CDF0F2"></path>
            <rect id="Rectangle" fill="#ACE7EB" x="134" y="252.439252" width="134" height="127"></rect>
            <path d="M266,252.439252 L400,252.439252 L400,258.110161 C400,290.288638 387.102875,321.149167 364.145843,343.902784 C341.188813,366.656403 310.052397,379.439252 277.586251,379.439252 L266,379.439252 L266,252.439252 L266,252.439252 Z" id="Path" fill="#8ADDE4"></path>
            <path d="M266,125.439252 L272.722886,125.439252 C343.016097,125.439252 400,181.981365 400,251.729597 L400,252.439252 L266,252.439252 L266,125.439252 Z" id="Path" fill="#6AD4DD"></path>
            <path d="M266,0.439252336 L277.586251,0.439252336 C345.193496,0.439252336 400,54.7601369 400,121.768344 L400,127.439252 L266,127.439252 L266,0.439252336 Z" id="Path" fill="#49CBD5"></path>
        </g>
    </g>
</svg>