<svg xmlns="http://www.w3.org/2000/svg" width="2022" height="287" viewBox="0 0 2022 287">
  <g fill="none" fill-rule="evenodd">
    <g opacity=".76">
      <rect width="100.5" height="95.918" x="99" y=".332" fill="#6AD4DD" fill-rule="nonzero"/>
      <path fill="#8ADDE4" fill-rule="nonzero" d="M91.8084561,0.331751107 L100.5,0.331751107 L100.5,96.2501722 L0,96.2501722 L0,91.9623572 C0.0592017211,41.3472052 41.1424475,0.343545296 91.8084561,0.331751107 L91.8084561,0.331751107 Z"/>
      <path fill="#ACE7EB" fill-rule="nonzero" d="M0,94.7396458 L100.5,94.7396458 L100.5,190.658067 L95.4578352,190.658067 C42.7379286,190.658067 0,147.953892 0,95.2756227 L0,94.7396458 L0,94.7396458 Z"/>
      <path fill="#CDF0F2" fill-rule="nonzero" d="M0.75,190.765143 L101.25,190.765143 L101.25,286.576488 L92.5603117,286.576488 C41.8548768,286.576488 0.75,245.549924 0.75,194.941095 L0.75,190.658067 L0.75,190.765143 Z"/>
      <rect width="100.5" height="95.918" x="100.5" y="190.658" fill="#ACE7EB" fill-rule="nonzero"/>
      <path fill="#8ADDE4" fill-rule="nonzero" d="M199.5,190.658067 L300,190.658067 L300,194.941095 C300,219.244313 290.327156,242.552134 273.109382,259.737102 C255.89161,276.922073 232.539298,286.576488 208.189688,286.576488 L199.5,286.576488 L199.5,190.658067 L199.5,190.658067 Z"/>
      <path fill="#6AD4DD" fill-rule="nonzero" d="M199.5,94.7396458 L204.542165,94.7396458 C257.262072,94.7396458 300,137.443821 300,190.12209 L300,190.658067 L199.5,190.658067 L199.5,94.7396458 Z"/>
      <path fill="#49CBD5" fill-rule="nonzero" d="M199.5,0.331751107 L208.189688,0.331751107 C258.895122,0.331751107 300,41.3583139 300,91.9671438 L300,96.2501722 L199.5,96.2501722 L199.5,0.331751107 Z"/>
    </g>
    <path fill="#16BDCA" fill-rule="nonzero" d="M151.515799 32.7863816C167.623632 44.2119537 178.719545 61.3766669 182.511326 80.7346089L136.165633 90.2438942C134.840212 80.026082 129.441323 70.774026 121.19117 64.5822172 112.586668 58.0568104 102.018823 54.6382419 91.215409 54.8854249 80.0695427 54.8854249 71.1242244 57.5640968 64.3794546 62.9214407 57.9489454 67.5888173 54.1474258 75.0484345 54.154956 82.9846933 54.154956 95.4851624 61.7584763 103.190808 76.9655172 106.101632L126.021642 115.959145C144.878373 120.030726 159.584476 127.566723 170.139951 138.567136 180.695426 149.567548 185.982109 163.791296 186 181.238379 186 203.221347 177.70769 220.677359 161.12307 233.606415 144.53845 246.535472 122.622421 253 95.374982 253 70.184966 253 48.6625306 247.160495 30.8076757 235.481486 13.3328513 224.398445 1.96339421 205.882831 0 185.309961L48.7072573 175.452448C54.6111672 200.185519 71.6072716 212.543125 99.6955706 212.525267 112.630501 212.525267 122.622421 209.846595 129.671332 204.489252 136.374811 199.715186 140.321801 191.975679 140.244698 183.756331 140.607637 177.796646 138.43463 171.960718 134.26028 167.684299 130.288559 163.827012 123.418554 160.880473 113.650267 158.844682L65.345549 149.683624C25.3599769 141.272594 5.37613619 119.50392 5.39402684 84.3776027 4.82616881 64.8870279 13.5353415 46.2786249 28.8754869 34.2060777 44.5476843 21.4020259 65.6675804 15 92.2351753 15 115.385659 15.0714312 135.145866 21.0002251 151.515799 32.7863816zM271.087303 8.01282715C276.1667 12.9708661 279.016709 19.7532551 278.992234 26.8248116 279.169802 33.9256797 276.295394 40.7661346 271.087303 45.636796 259.897459 55.6301196 242.914926 55.6301196 231.725081 45.636796 226.612438 40.7157749 223.813566 33.8914822 224.009653 26.8248116 224.236014 15.8552366 231.03592 6.07872115 241.288916 1.98167755 251.541911-2.11536606 263.268467.258071505 271.087303 8.01282715L271.087303 8.01282715zM228.80134 248L228.80134 77.7784152 274.173475 77.7784152 274.173475 248 228.80134 248zM448 240.357507C432.276514 248.767903 417.459464 252.982067 403.548845 253 382.602147 253 366.196593 247.360193 354.332181 236.080578 342.467769 224.800964 336.544539 207.76498 336.562489 184.972627L336.562489 114.443654 300 114.443654 300 77.5652329 336.562489 77.5652329 336.562489 26 381.686738 26 381.686738 77.5652329 437.392032 77.5652329 437.392032 114.443654 381.686738 114.443654 381.686738 181.690959C381.686738 201.237508 390.006185 211.019749 406.645079 211.037682 416.613661 210.704622 426.348313 207.933777 434.995816 202.968006L448 240.357507zM630 174.626474L500.546576 174.626474C502.263471 185.667283 507.598278 195.819844 515.708513 203.480845 523.114207 210.498497 532.946777 214.358492 543.134176 214.247401 562.419803 214.247401 576.499382 206.728756 585.372918 191.691466L625.625848 200.250878C619.265056 216.45358 607.930869 230.206943 593.262492 239.521893 578.1787 248.67454 560.813333 253.341702 543.187847 252.980088 519.92149 253.486058 497.479995 244.330385 481.171499 227.678681 464.390501 210.757243 456 189.080576 456 162.64868 456 136.216784 464.435224 114.495257 481.305676 97.4840975 497.744521 80.7116989 520.361865 71.4971551 543.805059 72.0211916 566.222823 71.7374043 587.796805 80.5853835 603.594078 96.5420238 620.285626 112.835412 629.0876 133.731504 630 159.230298L630 174.626474zM517.72116 119.609371C509.678906 125.039344 504.013741 133.350892 501.888341 142.838216L584.004318 142.838216C581.964692 133.436917 576.644934 125.075214 569.003393 119.259458 561.65975 114.000713 552.826889 111.245664 543.805059 111.399872 534.478176 111.397581 525.374691 114.262761 517.72116 119.609371L517.72116 119.609371zM694.708507 193.795116C696.762822 209.215009 708.539093 216.924955 730.037318 216.924955 736.892659 217.2857 743.70224 215.625692 749.607371 212.154258 754.033671 209.633168 756.772692 204.967237 756.797473 199.905896 756.797473 192.437165 750.490367 187.335914 737.876151 184.602144L702.898737 177.446099C687.329192 174.283502 675.372719 168.503276 667.029317 160.10542 658.762759 151.918574 654.239814 140.731137 654.514214 129.149494 654.081056 113.458012 661.083453 98.4707799 673.435536 88.6521739 686.139852 78.235259 703.123989 73.0178679 724.387952 73 744.210288 73 760.852042 77.6545564 774.313211 86.9636689 787.080332 95.34707 795.921879 108.458515 798.856868 123.360334L755.608133 131.856462C754.835243 125.022478 751.157322 118.840489 745.498741 114.864205 738.916973 110.329318 731.016683 108.060262 723.009399 108.405003 714.792139 108.405003 708.845438 110.048839 705.169295 113.33651 701.710075 116.268028 699.731821 120.563731 699.763203 125.07564 699.763203 132.312091 704.917012 137.073854 715.224626 139.360929L756.04062 148.205479C770.691129 151.368076 781.8457 157.21084 789.504329 165.73377 797.095582 174.067039 801.203009 184.953024 800.992275 196.180465 800.992275 214.548541 794.189608 228.610482 780.584278 238.366289 766.978947 248.122096 748.733387 253 725.847597 253 705.50267 253 688.122084 248.854675 673.70584 240.564026 659.693469 232.904716 650.434739 218.842896 649 203.041691L694.708507 193.795116zM1006 248.015635L961.176765 248.015635 961.176765 234.616805C946.003905 246.872268 927.336472 253 905.174466 253 883.01246 253 863.542702 244.487276 846.765191 227.46183 830.27295 210.472113 822.017917 189.033984 822.000028 163.147444 821.982256 137.260904 830.299694 115.778113 846.9524 98.6990706 863.587276 81.584298 882.994632 73.0179794 905.174466 73.0000378 927.3543 72.982249 946.021733 79.2350366 961.176765 91.7584766L961.176765 78.145265 1006 78.145265 1006 248.015635zM946.574446 199.779846C956.381428 190.20204 961.686172 176.913654 961.176765 163.20104 961.658211 149.446001 956.361316 136.118956 946.574446 126.461447 937.772629 117.334947 925.649974 112.180252 912.983765 112.178294 900.147861 111.775465 887.744408 116.850013 878.858199 126.139875 869.943476 135.447596 865.486112 147.801317 865.486112 163.20104 865.486112 178.600762 869.943476 190.909821 878.858199 200.128216 887.801831 209.312286 900.184014 214.310069 912.983765 213.902213 925.604717 213.940182 937.710344 208.889302 946.574446 199.887037L946.574446 199.779846zM1215.91935 247.877395L1170.86269 247.877395 1170.86269 232.563218C1157.24174 246.187739 1139.38216 253 1117.28397 253 1096.8167 253 1080.32818 246.357599 1067.81842 233.072797 1055.30865 219.787995 1049.03584 202.596424 1049 181.498084L1049 78 1094.1642 78 1094.1642 171.869732C1094.1642 183.920817 1097.29164 193.56705 1103.54652 200.808429 1109.79714 208.078094 1119.03567 212.098668 1128.62878 211.724138 1156.85641 211.724138 1170.96126 192.199234 1170.94334 153.149425L1170.94334 78.0536398 1216 78.0536398 1215.91935 247.877395zM1385.46046 178.819003L1427 189.377553C1422.65695 208.008583 1411.71174 224.43878 1396.18726 235.631503 1359.72631 261.453434 1310.14173 258.187379 1277.38793 227.806385 1259.79598 211.030619 1251 189.484746 1251 163.168767 1251 136.852789 1259.79598 115.25332 1277.38793 98.3703598 1294.5833 81.6552831 1317.76504 72.5241718 1341.74874 73.0191217 1360.9132 72.7627267 1379.63247 78.7973013 1395.03413 90.1968634 1410.38603 101.397145 1421.58228 117.373928 1426.86591 135.620065L1383.6369 147.86691C1377.9517 125.409894 1363.98898 114.181386 1341.74874 114.181386 1328.93823 113.68546 1316.51623 118.631332 1307.55706 127.794947 1298.81472 136.88852 1294.44355 148.679793 1294.44355 163.168767 1294.44355 177.657742 1298.81472 189.395418 1307.55706 198.381798 1316.27259 207.332446 1327.69663 211.780972 1341.74874 211.780972 1363.6493 211.816703 1378.21987 200.82938 1385.46046 178.819003zM1621.94635 174.978125L1492.5528 174.978125C1494.28066 185.965467 1499.6111 196.068849 1507.70772 203.702944 1515.11305 210.684267 1524.93904 214.526138 1535.1207 214.42116 1554.41529 214.42116 1568.48836 206.936272 1577.33991 191.966497L1617.57423 200.487479C1611.21637 216.617432 1599.88743 230.309045 1585.22584 239.582171 1570.15136 248.699202 1552.7924 253.345843 1535.17435 252.979941 1511.91875 253.48364 1489.48764 244.369075 1473.18668 227.792134 1456.39556 211.018126 1448 189.474512 1448 163.161292 1448 136.848072 1456.45815 115.250867 1473.37444 98.369677 1489.80568 81.6725844 1512.41257 72.4994128 1535.84492 73.0210965 1558.24057 72.7173704 1579.8029 81.4959327 1595.60629 97.3514465 1612.29012 113.57168 1621.08802 134.373951 1622 159.758259L1621.94635 174.978125zM1509.74626 120.208042C1501.71553 125.62148 1496.05533 133.892279 1493.92076 143.332593L1576.10606 143.332593C1574.07431 133.977404 1568.76688 125.653795 1561.13889 119.8597 1553.78868 114.624227 1544.95136 111.881814 1535.92539 112.035402 1526.56623 112.011159 1517.42628 114.864483 1509.74626 120.208042z" transform="translate(400 17)"/>
  </g>
</svg>
