<svg xmlns="http://www.w3.org/2000/svg" xmlns:xlink="http://www.w3.org/1999/xlink" width="274" height="261" version="1.1" viewBox="0 0 274 261"><title>Icon</title><desc>Created with Sketch.</desc><g id="Page-1" fill="none" fill-rule="evenodd" stroke="none" stroke-width="1" opacity=".76"><g id="Branding" fill-rule="nonzero" transform="translate(-1810.000000, -643.000000)"><g id="Icon"><g transform="translate(1595.860000, 0.000000) translate(214.960000, 643.000000)"><rect id="Rectangle" width="91.05" height="86.96" x="91.09" y=".06" fill="#38A0FF"/><path id="Path" fill="#5AACFF" d="M83.18,0.06 L91.0599902,0.06 L91.0599902,87.06 L0.0599901634,87.06 L0.0599901634,83.27 C0.0379021869,37.3403782 37.2503812,0.0876065797 83.18,0.06 L83.18,0.06 Z"/><path id="Path" fill="#7EBCFF" d="M0.04,87 L91.04,87 L91.04,174 L86.47,174 C38.7139377,174 1.13686838e-13,135.286062 1.13686838e-13,87.53 L1.13686838e-13,87 L0.04,87 Z"/><path id="Path" fill="#9FCCFF" d="M0.04,174 L91.04,174 L91.04,261 L83.18,261 C37.2464774,261 0.01,223.763523 0.01,177.83 L0.01,174 L0.04,174 Z"/><rect id="Rectangle" width="91.05" height="86.96" x="91.09" y="173.98" fill="#7EBCFF"/><path id="Path" fill="#5AACFF" d="M182.18,174 L273.18,174 L273.18,177.79 C273.18,223.723523 235.943523,260.96 190.01,260.96 L182.18,260.96 L182.18,174 Z"/><path id="Path" fill="#38A0FF" d="M182.18,87 L186.75,87 C234.498251,87.0220865 273.191049,125.741745 273.18,173.49 L273.18,174 L182.18,174 L182.18,87 Z"/><path id="Path" fill="#0089FF" d="M182.18,0.06 L190.06,0.06 C235.973995,0.087602503 273.18,37.3159965 273.18,83.23 L273.18,87 L182.18,87 L182.18,0 L182.18,0.06 Z"/></g></g></g></g></svg>