<?xml version="1.0" encoding="UTF-8"?>
<svg width="788px" height="135px" viewBox="0 0 788 135" version="1.1" xmlns="http://www.w3.org/2000/svg" xmlns:xlink="http://www.w3.org/1999/xlink">
    <!-- Generator: Sketch 57.1 (83088) - https://sketch.com -->
    <title>Logo</title>
    <desc>Created with Sketch.</desc>
    <g id="Page-1" stroke="none" stroke-width="1" fill="none" fill-rule="evenodd">
        <g id="Logo" transform="translate(0.780000, 0.390000)" fill-rule="nonzero">
            <g id="Icon" opacity="0.76">
                <rect id="Rectangle" fill="#38A0FF" x="46.84" y="3.55271368e-15" width="46.84" height="44.74"></rect>
                <path d="M42.78,0 L46.83,0 L46.83,44.74 L1.13686838e-13,44.74 L1.13686838e-13,42.74 C0.0275862348,19.1311679 19.1711524,0.00550125829 42.78,0 L42.78,0 Z" id="Path" fill="#5AACFF"></path>
                <path d="M2.84217094e-14,44.74 L46.84,44.74 L46.84,89.48 L44.49,89.48 C19.9188515,89.48 2.84217094e-14,69.5611485 2.84217094e-14,44.99 L2.84217094e-14,44.74 L2.84217094e-14,44.74 Z" id="Path" fill="#7EBCFF"></path>
                <path d="M1.13686838e-13,89.48 L46.84,89.48 L46.84,134.22 L42.79,134.22 C19.1577356,134.22 1.13686838e-13,115.062264 1.13686838e-13,91.43 L1.13686838e-13,89.43 L1.13686838e-13,89.48 Z" id="Path" fill="#9FCCFF"></path>
                <rect id="Rectangle" fill="#7EBCFF" x="46.84" y="89.48" width="46.84" height="44.74"></rect>
                <path d="M93.68,89.48 L140.52,89.48 L140.52,91.48 C140.52,102.828614 136.011781,113.712418 127.987099,121.737099 C119.962418,129.761781 109.078614,134.27 97.73,134.27 L93.68,134.27 L93.68,89.48 L93.68,89.48 Z" id="Path" fill="#5AACFF"></path>
                <path d="M93.68,44.74 L96.03,44.74 C120.601149,44.74 140.52,64.6588515 140.52,89.23 L140.52,89.48 L93.68,89.48 L93.68,44.74 Z" id="Path" fill="#38A0FF"></path>
                <path d="M93.68,0 L97.73,0 C121.362264,0 140.52,19.1577356 140.52,42.79 L140.52,44.79 L93.68,44.79 L93.68,0 Z" id="Path" fill="#0089FF"></path>
            </g>
            <g id="Name" transform="translate(182.640000, 19.148401)" fill="#FFFFFF">
                <path d="M56.46,11.9315988 C62.462333,16.1969857 66.5970518,22.6049049 68.01,29.8315988 L50.74,33.3815988 C50.2461028,29.567092 48.2342907,26.1131207 45.16,23.8015988 C41.9536663,21.3655383 38.0157237,20.0893206 33.99,20.1815988 C29.8366667,20.1815988 26.5033333,21.1815988 23.99,23.1815988 C21.593771,24.9240207 20.177194,27.70884 20.18,30.6715988 C20.18,35.3382655 23.0133333,38.2149321 28.68,39.3015988 L46.96,42.9815988 C53.9866667,44.5015988 59.4666667,47.3149321 63.4,51.4215988 C67.3333333,55.5282655 69.3033333,60.8382655 69.31,67.3515988 C69.31,75.5582655 66.22,82.0749321 60.04,86.9015988 C53.86,91.7282655 45.6933333,94.1415988 35.54,94.1415988 C26.1533333,94.1415988 18.1333333,91.9615988 11.48,87.6015988 C4.96827917,83.4640854 0.731628242,76.5518491 0,68.8715988 L18.15,65.1915988 C20.35,74.4249321 26.6833333,79.0382655 37.15,79.0315988 C41.97,79.0315988 45.6933333,78.0315988 48.32,76.0315988 C50.8179471,74.2493477 52.2887315,71.3600403 52.26,68.2915988 C52.3952435,66.0667334 51.5855065,63.8880687 50.03,62.2915988 C48.55,60.8515988 45.99,59.7515988 42.35,58.9915988 L24.35,55.5715988 C9.45,52.4315988 2.00333333,44.3049321 2.01,31.1915988 C1.79839656,23.9153905 5.04373396,16.968514 10.76,12.4615988 C16.6,7.68159879 24.47,5.29159879 34.37,5.29159879 C42.9966667,5.31826545 50.36,7.53159879 56.46,11.9315988 Z" id="Path"></path>
                <path d="M101.01,2.98159879 C102.886277,4.82650104 103.939041,7.35024983 103.93,9.98159879 C103.995592,12.6238547 102.933815,15.16921 101.01,16.9815988 C96.8765864,20.7001467 90.6034136,20.7001467 86.47,16.9815988 C84.5814422,15.150471 83.5475675,12.6111297 83.62,9.98159879 C83.7036156,5.89978462 86.215431,2.26191172 90.002782,0.737388598 C93.790133,-0.787134523 98.1218022,0.0960292384 101.01,2.98159879 L101.01,2.98159879 Z M85.39,92.2815988 L85.39,28.9415988 L102.15,28.9415988 L102.15,92.2815988 L85.39,92.2815988 Z" id="Shape"></path>
                <path d="M166.89,89.4615988 C161.05,92.5882655 155.546667,94.1549321 150.38,94.1615988 C142.6,94.1615988 136.506667,92.0649321 132.1,87.8715988 C127.693333,83.6782655 125.493333,77.3449321 125.5,68.8715988 L125.5,42.6515988 L111.92,42.6515988 L111.92,28.9415988 L125.5,28.9415988 L125.5,9.77159879 L142.26,9.77159879 L142.26,28.9415988 L162.95,28.9415988 L162.95,42.6515988 L142.26,42.6515988 L142.26,67.6515988 C142.26,74.9182655 145.35,78.5549321 151.53,78.5615988 C155.23252,78.4377795 158.848154,77.4076844 162.06,75.5615988 L166.89,89.4615988 Z" id="Path"></path>
                <path d="M234.42,65.1215988 L186.18,65.1215988 C186.81979,69.2234894 188.807772,72.9953772 191.83,75.8415988 C194.589685,78.4488025 198.25373,79.8828711 202.05,79.8415988 C209.236667,79.8415988 214.483333,77.0482655 217.79,71.4615988 L232.79,74.6415988 C230.419691,80.6612399 226.196078,85.770901 220.73,89.2315988 C215.10912,92.6319979 208.638026,94.3659458 202.07,94.2315988 C193.399939,94.4195773 185.037258,91.018054 178.96,84.8315988 C172.706667,78.5449321 169.58,70.4915988 169.58,60.6715988 C169.58,50.8515988 172.723333,42.7815988 179.01,36.4615988 C185.135832,30.2303033 193.564042,26.8069083 202.3,27.0015988 C210.653838,26.8961659 218.693246,30.1833745 224.58,36.1115988 C230.8,42.1649321 234.08,49.9282655 234.42,59.4015988 L234.42,65.1215988 Z M192.58,44.6815988 C189.583105,46.6989471 187.472017,49.7868602 186.68,53.3115988 L217.28,53.3115988 C216.519946,49.8188203 214.537572,46.7122734 211.69,44.5515988 C208.953438,42.5978655 205.661928,41.5743074 202.3,41.6315988 C198.824396,41.6307479 195.43204,42.6952219 192.58,44.6815988 L192.58,44.6815988 Z" id="Shape"></path>
                <path d="M258.66,72.1015988 C259.42,77.8549321 263.776667,80.7315988 271.73,80.7315988 C274.266154,80.8661967 276.785379,80.2468293 278.97,78.9515988 C280.607523,78.0109518 281.620832,76.2700412 281.63,74.3815988 C281.63,71.5949321 279.296667,69.6915988 274.63,68.6715988 L261.69,66.0015988 C255.93,64.8215988 251.506667,62.6649321 248.42,59.5315988 C245.361762,56.4769957 243.688485,52.3028386 243.79,47.9815988 C243.629752,42.1269325 246.22031,36.5350298 250.79,32.8715988 C255.49,28.9849321 261.773333,27.0382655 269.64,27.0315988 C276.973333,27.0315988 283.13,28.7682655 288.11,32.2415988 C292.833235,35.3695389 296.104192,40.2615647 297.19,45.8215988 L281.19,48.9915988 C280.904067,46.4417634 279.543409,44.1351945 277.45,42.6515988 C275.015055,40.959582 272.092319,40.1129722 269.13,40.2415988 C266.09,40.2415988 263.89,40.8549321 262.53,42.0815988 C261.250251,43.1753808 260.51839,44.7781553 260.53,46.4615988 C260.53,49.1615988 262.436667,50.9382655 266.25,51.7915988 L281.35,55.0915988 C286.77,56.2715988 290.896667,58.4515988 293.73,61.6315988 C296.538407,64.7408341 298.057962,68.8025159 297.98,72.9915988 C297.98,79.8449321 295.463333,85.0915988 290.43,88.7315988 C285.396667,92.3715988 278.646667,94.1915988 270.18,94.1915988 C262.653333,94.1915988 256.223333,92.6449321 250.89,89.5515988 C245.706081,86.6938252 242.280786,81.4472036 241.75,75.5515988 L258.66,72.1015988 Z" id="Path"></path>
                <path d="M374.68,92.2815988 L357.92,92.2815988 L357.92,87.2815988 C352.246667,91.8549321 345.266667,94.1415988 336.98,94.1415988 C328.693333,94.1415988 321.413333,90.9649321 315.14,84.6115988 C308.973333,78.2715988 305.886667,70.2715988 305.879978,60.6115988 C305.873333,50.9515988 308.983333,42.9349321 315.21,36.5615988 C321.43,30.1749321 328.686667,26.9782655 336.98,26.9715703 C345.273333,26.9649321 352.253333,29.2982655 357.92,33.9715988 L357.92,28.8915988 L374.68,28.8915988 L374.68,92.2815988 Z M352.46,74.2815988 C356.12696,70.7074784 358.110474,65.7486928 357.92,60.6315988 C358.100019,55.4986738 356.11944,50.5254615 352.46,46.9215988 C349.168884,43.5158912 344.636063,41.5923294 339.9,41.5915988 C335.100486,41.4412765 330.462671,43.3349297 327.14,46.8015988 C323.806667,50.2749321 322.14,54.8849321 322.14,60.6315988 C322.14,66.3782655 323.806667,70.9715988 327.14,74.4115988 C330.484142,77.83879 335.114004,79.7037972 339.9,79.5515988 C344.619141,79.5657675 349.145595,77.6809463 352.46,74.3215988 L352.46,74.2815988 Z" id="Shape"></path>
                <path d="M452.87,92.2815988 L436.11,92.2815988 L436.11,86.5715988 C431.043333,91.6515988 424.4,94.1915988 416.18,94.1915988 C408.566667,94.1915988 402.433333,91.7149321 397.78,86.7615988 C393.126667,81.8082655 390.793333,75.3982655 390.78,67.5315988 L390.78,28.9415988 L407.58,28.9415988 L407.58,63.9415988 C407.58,68.4349321 408.743333,72.0315988 411.07,74.7315988 C413.395079,77.4421452 416.83159,78.9412449 420.4,78.8015988 C430.9,78.8015988 436.146667,71.5215988 436.14,56.9615988 L436.14,28.9615988 L452.9,28.9615988 L452.87,92.2815988 Z" id="Path"></path>
                <path d="M515.7,66.5115988 L531.19,70.4515988 C529.570486,77.403904 525.489041,83.5349522 519.7,87.7115988 C506.103795,97.3472415 487.613817,96.128489 475.4,84.7915988 C468.84,78.5315988 465.56,70.4915988 465.56,60.6715988 C465.56,50.8515988 468.84,42.7915988 475.4,36.4915988 C481.812113,30.2542456 490.45653,26.8469046 499.4,27.0315988 C506.546383,26.9359231 513.526754,29.1877688 519.27,33.4415988 C524.994689,37.6210659 529.169746,43.5829195 531.14,50.3915988 L515.02,54.9615988 C512.9,46.5815988 507.693333,42.3915988 499.4,42.3915988 C494.622989,42.2065406 489.990853,44.0521289 486.65,47.4715988 C483.39,50.8649321 481.76,55.2649321 481.76,60.6715988 C481.76,66.0782655 483.39,70.4582655 486.65,73.8115988 C489.9,77.1515988 494.16,78.8115988 499.4,78.8115988 C507.566667,78.8249321 513,74.7249321 515.7,66.5115988 Z" id="Path"></path>
                <path d="M603.67,65.1215988 L555.43,65.1215988 C556.074175,69.2220357 558.061449,72.992582 561.08,75.8415988 C563.840825,78.4470037 567.504114,79.8807763 571.3,79.8415988 C578.493333,79.8415988 583.74,77.0482655 587.04,71.4615988 L602.04,74.6415988 C599.669691,80.6612399 595.446078,85.770901 589.98,89.2315988 C584.359991,92.634042 577.888293,94.3681519 571.32,94.2315988 C562.649939,94.4195773 554.287258,91.018054 548.21,84.8315988 C541.95,78.5715988 538.82,70.5315988 538.82,60.7115988 C538.82,50.8915988 541.973333,42.8315988 548.28,36.5315988 C554.405832,30.3003033 562.834042,26.8769083 571.57,27.0715988 C579.91946,26.9582493 587.958241,30.2343775 593.85,36.1515988 C600.07,42.2049321 603.35,49.9682655 603.69,59.4415988 L603.67,65.1215988 Z M561.84,44.6815988 C558.846013,46.7018746 556.735801,49.7885075 555.94,53.3115988 L586.58,53.3115988 C585.822532,49.8202756 583.843835,46.7139344 581,44.5515988 C578.259723,42.5977391 574.965026,41.5742802 571.6,41.6315988 C568.110753,41.6225513 564.703233,42.6874016 561.84,44.6815988 Z" id="Shape"></path>
            </g>
        </g>
    </g>
</svg>